<?xml version="1.0" encoding="utf-8"?>
<svg viewBox="0 0 500 500" xmlns="http://www.w3.org/2000/svg">
  <path fill="#187f18" d="M 400.9 319.85 L 308.294 319.85 C 291.316 319.85 277.425 305.959 277.425 288.981 C 277.425 272.004 291.429 257.917 308.407 257.917 L 400 257.917 C 400 257.917 400 235.352 400 197.557 L 308.294 196.376 C 257.264 196.376 215.688 237.952 215.688 288.981 C 215.688 340.011 257.264 381.587 308.294 381.587 L 400.9 381.587 C 417.878 381.587 431.768 395.478 431.768 412.456 C 431.768 429.434 417.878 443.324 400.9 443.324 L 178.549 443.324 C 163.115 467.248 145.944 489.338 132.922 505.062 L 400.9 505.062 C 451.929 505.062 493.506 463.485 493.506 412.456 C 493.506 361.426 451.929 319.85 400.9 319.85 Z M 92.214 258.113 C 41.088 258.113 -0.392 299.592 -0.392 350.719 C -0.392 401.845 92.214 505.062 92.214 505.062 C 92.214 505.062 184.82 401.845 184.82 350.719 C 184.82 299.592 143.34 258.113 92.214 258.113 Z M 92.214 381.587 C 75.14 381.587 61.345 367.793 61.345 350.719 C 61.345 333.644 75.14 319.85 92.214 319.85 C 109.288 319.85 123.082 333.644 123.082 350.719 C 123.082 367.793 109.288 381.587 92.214 381.587 Z" style=""/>
  <path fill="#187f18" d="M 400.353 73.07 L 307.747 73.07 L 307.747 134.807 L 400.353 134.807 C 417.331 134.807 431.221 148.698 431.221 165.676 C 431.221 182.654 416.179 197.596 399.201 197.596 L 399.201 257.941 C 450.23 257.941 492.959 216.705 492.959 165.676 C 492.959 114.646 451.382 73.07 400.353 73.07 Z" style=""/>
</svg>