<?xml version="1.0" encoding="utf-8"?>
<svg viewBox="0 0 512 512" xmlns="http://www.w3.org/2000/svg">
  <path fill="#187f18" d="M 416 320 L 320 320 C 302.4 320 288 305.6 288 288 C 288 270.4 302.4 256 320 256 L 416 256 C 416 256 512 149 512 96 C 512 43 469 0 416 0 C 363 0 320 43 320 96 C 320 121.5 342.2 159.4 365.3 192 L 320 192 C 267.1 192 224 235.1 224 288 C 224 340.9 267.1 384 320 384 L 416 384 C 433.6 384 448 398.4 448 416 C 448 433.6 433.6 448 416 448 L 185.5 448 C 169.5 472.8 151.7 495.7 138.2 512 L 416 512 C 468.9 512 512 468.9 512 416 C 512 363.1 468.9 320 416 320 Z M 416 64 C 433.7 64 448 78.3 448 96 C 448 113.7 433.7 128 416 128 C 398.3 128 384 113.7 384 96 C 384 78.3 398.3 64 416 64 Z"/>
</svg>