<svg width="576" height="512" xmlns="http://www.w3.org/2000/svg" class="svg-inline--fa fa-volume-up fa-w-18">
 <defs>
  <filter height="200%" width="200%" y="-50%" x="-50%" id="svg_2_blur">
   <feGaussianBlur stdDeviation="0" in="SourceGraphic"/>
  </filter>
 </defs>
 <g>
  <title>Layer 1</title>
  <path id="svg_1" d="m451.35,21.97c-11.17,-7.33 -26.18,-4.24 -33.51,6.95c-7.34,11.17 -4.22,26.18 6.95,33.51c66.27,43.49 105.82,116.6 105.82,195.58c0,78.98 -39.55,152.09 -105.82,195.58c-11.17,7.32 -14.29,22.34 -6.95,33.5c7.04,10.71 21.93,14.56 33.51,6.95c79.92,-52.46 127.65,-140.71 127.65,-236.04s-47.73,-183.57 -127.65,-236.03zm31.65,236.03c0,-63.53 -32.06,-121.94 -85.77,-156.24c-11.19,-7.14 -26.03,-3.82 -33.12,7.46s-3.78,26.21 7.41,33.36c39.75,25.39 63.48,68.53 63.48,115.42s-23.73,90.03 -63.48,115.42c-11.19,7.14 -14.5,22.07 -7.41,33.36c6.51,10.36 21.12,15.14 33.12,7.46c53.71,-34.3 85.77,-92.7 85.77,-156.24zm-141.77,-76.87c-11.58,-6.33 -26.19,-2.16 -32.61,9.45c-6.39,11.61 -2.16,26.2 9.45,32.61c12.91,7.09 20.93,20.44 20.93,34.81c0,14.38 -8.02,27.72 -20.92,34.81c-11.61,6.41 -15.84,21 -9.45,32.61c6.43,11.66 21.05,15.8 32.61,9.45c28.23,-15.55 45.77,-45 45.77,-76.88s-17.54,-61.32 -45.78,-76.86z" fill="#343434"/>
  <rect filter="url(#svg_2_blur)" rx="100" stroke="null" id="svg_2" height="392.54416" width="210" y="59.72792" x="27" fill-opacity="null" stroke-opacity="null" stroke-width="null" fill="#343434"/>
 </g>
</svg>